<svg width="50" height="50" viewBox="0 0 50 50" fill="none" xmlns="http://www.w3.org/2000/svg">
<path d="M18.0424 15.8401C17.5498 15.2048 16.6385 15.0896 16.0033 15.5823C15.368 16.0749 15.2528 16.9862 15.7455 17.6214L21.5349 25.0866C21.7799 25.4024 21.7219 25.8613 21.406 26.1062C21.0902 26.3511 20.6314 26.2931 20.3864 25.9773L15.4877 19.6606C14.995 19.0254 14.0837 18.9102 13.4485 19.4028C12.8132 19.8955 12.698 20.8067 13.1907 21.442L20.7615 31.2041C20.8033 31.258 20.8478 31.3154 20.8931 31.3664L17.1186 30.9831C16.1212 30.8829 15.2299 31.6087 15.1261 32.6088C15.0224 33.6089 15.7517 34.4974 16.7518 34.6012L23.7641 35.3129C26.4549 35.5883 29.1488 34.8153 31.2879 33.1564L31.977 32.622C35.4655 29.9166 36.1003 24.8951 33.3949 21.4066L27.6054 13.9414C27.1128 13.3062 26.2015 13.191 25.5662 13.6836C24.931 14.1763 24.8158 15.0875 25.3084 15.7228L28.4258 19.7425C28.6708 20.0583 28.6128 20.5171 28.2969 20.7621C27.9811 21.007 27.5223 20.949 27.2774 20.6332L22.3786 14.3165C21.8859 13.6812 20.9747 13.566 20.3394 14.0587C19.7042 14.5514 19.5889 15.4626 20.0816 16.0979L24.9804 22.4145C25.2253 22.7304 25.1673 23.1892 24.8515 23.4341C24.5356 23.6791 24.0768 23.6211 23.8319 23.3052L18.0424 15.8401Z" fill="#373f43"/>
<path fill-rule="evenodd" clip-rule="evenodd" d="M0 30C0 33.3137 2.68629 36 6 36H9C10.1046 36 11 35.1046 11 34C11 32.8954 10.1046 32 9 32H6C4.89543 32 4 31.1046 4 30V27C4 25.8954 3.10457 25 2 25C0.89543 25 0 25.8954 0 27V30ZM0 21C0 22.1046 0.89543 23 2 23C3.10457 23 4 22.1046 4 21L4 15C4 13.8954 3.10457 13 2 13C0.89543 13 0 13.8954 0 15V21ZM0 9C0 10.1046 0.895429 11 2 11C3.10457 11 4 10.1046 4 9V6C4 4.89543 4.89543 4 6 4H9C10.1046 4 11 3.10457 11 2C11 0.895431 10.1046 0 9 0H6C2.68629 0 0 2.68629 0 6V9ZM35.0676 26.5716C34.9899 28.8641 33.9312 31.1065 31.977 32.622L31.2879 33.1565C30.2988 33.9235 29.1911 34.5011 28.02 34.8733C27.8216 34.9364 27.6214 34.9935 27.4196 35.0447C26.7985 35.2022 26.1627 35.3031 25.5199 35.3452C25.1969 34.9899 25 34.518 25 34C25 32.8954 25.8954 32 27 32H30C30.2749 32 30.532 31.9457 30.765 31.849C31.0724 31.7216 31.3934 31.6764 31.7035 31.7035C31.6764 31.3934 31.7216 31.0724 31.849 30.765C31.9457 30.532 32 30.2749 32 30V28.2632C32 27.5197 32.4056 26.871 33.0077 26.5263C32.4056 26.1816 32 25.5329 32 24.7895V23.0526V19.608L33.3949 21.4066C34.5644 22.9147 35.1098 24.7093 35.0701 26.4794C35.0446 26.4956 35.0187 26.5112 34.9923 26.5263C35.0178 26.5409 35.0428 26.556 35.0676 26.5716ZM33.6362 16.8225L35.7655 19.5681C35.8458 19.6716 35.924 19.7762 36 19.8816V18.7895C36 17.6849 35.1046 16.7895 34 16.7895C33.8758 16.7895 33.7542 16.8008 33.6362 16.8225ZM15.299 32H21C22.1046 32 23 32.8954 23 34C23 34.4481 22.8527 34.8617 22.6038 35.1951L16.7518 34.6012C15.7517 34.4974 15.0224 33.6089 15.1261 32.6088C15.1487 32.3909 15.2087 32.1861 15.299 32ZM15 0C13.8954 0 13 0.895431 13 2C13 3.10457 13.8954 4 15 4L18 4H21C22.1046 4 23 3.10457 23 2C23 0.895431 22.1046 0 21 0H18H15ZM27 0C25.8954 0 25 0.895431 25 2C25 3.10457 25.8954 4 27 4H30C31.1046 4 32 4.89543 32 6V10.2632C32 11.3677 32.8954 12.2632 34 12.2632C35.1046 12.2632 36 11.3677 36 10.2632V6C36 2.68629 33.3137 0 30 0H27Z" fill="#373f43"/>
<path fill-rule="evenodd" clip-rule="evenodd" d="M17.1185 30.9831L20.8931 31.3665C20.8482 31.3158 20.804 31.2589 20.7626 31.2055L20.7619 31.2046L20.7615 31.2041L17 26.3539V21.6107L20.3864 25.9773C20.4653 26.079 20.5663 26.154 20.6776 26.2007C20.912 26.2991 21.1919 26.2723 21.406 26.1062C21.6286 25.9336 21.7232 25.6547 21.6738 25.3944C21.6531 25.2855 21.6072 25.1798 21.5349 25.0866L17.261 19.5757C17.6244 18.6223 18.3419 17.8438 19.2528 17.4008L23.8319 23.3052C23.9042 23.3985 23.9951 23.4692 24.0955 23.5164C24.3352 23.6289 24.6289 23.6068 24.8515 23.4341C25.0741 23.2615 25.1686 22.9826 25.1192 22.7224C25.0986 22.6134 25.0527 22.5078 24.9804 22.4146L20.7856 17.0056C20.8566 17.0019 20.9281 17 21 17H24.4597L27.2774 20.6332C27.3496 20.7264 27.4406 20.7972 27.5409 20.8443C27.7807 20.9569 28.0743 20.9347 28.2969 20.7621C28.5111 20.596 28.6067 20.3316 28.5697 20.0802C28.5522 19.9607 28.5047 19.8442 28.4258 19.7425L26.2989 17H29.9774L33.3949 21.4066C36.1003 24.8951 35.4655 29.9166 31.977 32.622L31.2879 33.1565C30.2988 33.9235 29.1911 34.5011 28.02 34.8733C27.8216 34.9363 27.6214 34.9935 27.4196 35.0447C26.2365 35.3448 25 35.4394 23.7641 35.3129L17 34.6264V30.975C17.0393 30.9764 17.0788 30.9791 17.1185 30.9831ZM17 46V37.6418L23.4586 38.2973L23.4598 38.2975C26.9189 38.6512 30.3798 37.6572 33.1264 35.5271L33.8155 34.9927C38.6133 31.2719 39.4863 24.3659 35.7655 19.5681L33.7739 17H46C48.2091 17 50 18.7909 50 21V46C50 48.2091 48.2091 50 46 50H21C18.7909 50 17 48.2091 17 46ZM43.375 41.625H45.125C45.3571 41.625 45.5796 41.7172 45.7437 41.8813C45.9078 42.0454 46 42.2679 46 42.5C46 42.7321 45.9078 42.9546 45.7437 43.1187C45.5796 43.2828 45.3571 43.375 45.125 43.375L43.375 43.3439V45.125C43.375 45.3571 43.2828 45.5796 43.1187 45.7437C42.9546 45.9078 42.7321 46 42.5 46C42.2679 46 42.0454 45.9078 41.8813 45.7437C41.7172 45.5796 41.625 45.3571 41.625 45.125L41.6561 43.3439L39.875 43.375C39.6429 43.375 39.4204 43.2828 39.2563 43.1187C39.0922 42.9546 39 42.7321 39 42.5C39 42.2679 39.0922 42.0454 39.2563 41.8813C39.4204 41.7172 39.6429 41.625 39.875 41.625H41.6561L41.625 39.875C41.625 39.6429 41.7172 39.4204 41.8813 39.2563C42.0454 39.0922 42.2679 39 42.5 39C42.7321 39 42.9546 39.0922 43.1187 39.2563C43.2828 39.4204 43.375 39.6429 43.375 39.875V41.625Z" fill="#373f43"/>
</svg>
