<svg xmlns="http://www.w3.org/2000/svg" width="36" height="36" fill="none"><path fill="#FFC814" fill-rule="evenodd" d="M30.041 31.3799C28.1766 31.9065 26.2094 32.1883 24.1765 32.1883C20.1255 32.1883 16.3358 31.0695 13.0996 29.124C22.4185 24.8539 29.3566 16.2844 31.3754 5.95422C34.2502 9.14418 36 13.3678 36 18.0001C36 23.3113 33.6997 28.0852 30.041 31.3799Z" clip-rule="evenodd"/><path fill="#479FD6" fill-rule="evenodd" d="M31.3798 5.95902C31.9064 7.82343 32.1882 9.79055 32.1882 11.8235C32.1882 15.8745 31.0694 19.6642 29.1238 22.9004C24.8538 13.5815 16.2843 6.64337 5.9541 4.62455C9.14409 1.74982 13.3677 2.02482e-07 17.9999 0C23.3111 -2.32165e-07 28.0851 2.30031 31.3798 5.95902Z" clip-rule="evenodd"/><path fill="#ED1C24" fill-rule="evenodd" d="M5.95899 4.62018C7.8234 4.09356 9.79055 3.81177 11.8235 3.81177C15.8745 3.81177 19.6642 4.93059 22.9004 6.87611C13.5815 11.1462 6.64334 19.7157 4.62455 30.0459C1.74982 26.8559 2.02485e-07 22.6323 0 18C-2.32158e-07 12.6888 2.30031 7.91489 5.95899 4.62018Z" clip-rule="evenodd"/><path fill="#8CC63F" fill-rule="evenodd" d="M4.62018 30.041C4.09356 28.1766 3.81177 26.2094 3.81177 24.1765C3.81177 20.1255 4.93059 16.3358 6.87611 13.0996C11.1462 22.4185 19.7157 29.3566 30.0459 31.3754C26.8559 34.2502 22.6323 36 18 36C12.6888 36 7.91489 33.6997 4.62018 30.041Z" clip-rule="evenodd"/><path fill="#FFC814" fill-rule="evenodd" d="M22.5707 22.5144C19.8525 25.2477 16.6487 27.4975 13.0996 29.1238C16.3358 31.0693 20.1255 32.1881 24.1765 32.1881C26.2094 32.1881 28.1766 31.9063 30.041 31.3797C30.6378 30.8423 31.1984 30.2656 31.7188 29.6536L22.5707 22.5144Z" clip-rule="evenodd"/><path fill="url(#a)" fill-rule="evenodd" d="M16.827 4.39612C18.9974 4.91265 21.0404 5.7578 22.9005 6.87606C17.5451 9.33002 12.9759 13.2039 9.67483 18.0159C8.60528 16.4695 7.66702 14.8254 6.87622 13.0996C9.18873 9.25291 12.6692 6.18821 16.827 4.39612Z" clip-rule="evenodd"/><path fill="url(#b)" fill-rule="evenodd" d="M31.6039 16.8269C31.0874 18.9973 30.2422 21.0403 29.124 22.9004C26.67 17.5449 22.7961 12.9758 17.9841 9.67471C19.5305 8.60512 21.1746 7.6669 22.9004 6.8761C26.7471 9.1886 29.8118 12.6691 31.6039 16.8269Z" clip-rule="evenodd"/><path fill="url(#c)" fill-rule="evenodd" d="M19.1731 31.6038C17.0027 31.0872 14.9597 30.2421 13.0996 29.1238C18.455 26.6699 23.0242 22.796 26.3253 17.984C27.3948 19.5304 28.3331 21.1745 29.1239 22.9003C26.8114 26.747 23.3309 29.8117 19.1731 31.6038Z" clip-rule="evenodd"/><path fill="url(#d)" fill-rule="evenodd" d="M4.39624 19.1731C4.91277 17.0027 5.75792 14.9597 6.87618 13.0996C9.33011 18.455 13.204 23.0242 18.016 26.3253C16.4697 27.3948 14.8255 28.3331 13.0997 29.1239C9.25303 26.8114 6.18833 23.3309 4.39624 19.1731Z" clip-rule="evenodd"/><defs><linearGradient id="a" x1="18.514" x2="8.851" y1="6.727" y2="16.886" gradientUnits="userSpaceOnUse"><stop stop-color="#ED1C24"/><stop offset=".348" stop-color="#EA1B23"/><stop offset=".557" stop-color="#E2171E"/><stop offset=".73" stop-color="#D41116"/><stop offset=".882" stop-color="#C0090C"/><stop offset="1" stop-color="#A00"/></linearGradient><linearGradient id="b" x1="29.247" x2="19.584" y1="18.728" y2="8.817" gradientUnits="userSpaceOnUse"><stop stop-color="#479FD6"/><stop offset=".393" stop-color="#459DD3"/><stop offset=".629" stop-color="#3E95CB"/><stop offset=".823" stop-color="#3388BD"/><stop offset=".995" stop-color="#2476A9"/><stop offset="1" stop-color="#2375A8"/></linearGradient><linearGradient id="c" x1="18.419" x2="26.844" y1="29.085" y2="18.183" gradientUnits="userSpaceOnUse"><stop stop-color="#FFC814"/><stop offset=".348" stop-color="#FEC513"/><stop offset=".557" stop-color="#FABD11"/><stop offset=".73" stop-color="#F4AF0C"/><stop offset=".882" stop-color="#EC9B06"/><stop offset="1" stop-color="#E38500"/></linearGradient><linearGradient id="d" x1="6.855" x2="17.138" y1="17.904" y2="27.072" gradientUnits="userSpaceOnUse"><stop stop-color="#8CC63F"/><stop offset=".38" stop-color="#8AC33D"/><stop offset=".609" stop-color="#82BB37"/><stop offset=".797" stop-color="#75AD2C"/><stop offset=".963" stop-color="#63991D"/><stop offset="1" stop-color="#5E9319"/></linearGradient></defs></svg>
