<svg xmlns="http://www.w3.org/2000/svg" viewBox="0 0 300 180" height="180" width="300"><path fill="#ccc" fill-opacity="0" d="M0 0h300v180H0z"/><path d="M137.5 77.5q0 3.125-2.188 5.313Q133.125 85 130 85q-3.125 0-5.313-2.187-2.187-2.188-2.187-5.313 0-3.125 2.187-5.312Q126.875 70 130 70q3.125 0 5.312 2.188 2.188 2.187 2.188 5.312zm40 15V110h-55v-7.5L135 90l6.25 6.25 20-20zm3.75-27.5h-62.5q-.508 0-.879.371t-.371.879v47.5q0 .508.371.879t.879.371h62.5q.508 0 .879-.371t.371-.879v-47.5q0-.508-.371-.879T181.25 65zm6.25 1.25v47.5q0 2.578-1.836 4.414Q183.828 120 181.25 120h-62.5q-2.578 0-4.414-1.836-1.836-1.836-1.836-4.414v-47.5q0-2.578 1.836-4.414Q116.172 60 118.75 60h62.5q2.578 0 4.414 1.836 1.836 1.836 1.836 4.414z" fill="#000" fill-opacity="0.6"/></svg>
